<svg width="16" height="16" viewBox="0 0 16 16" fill="none" xmlns="http://www.w3.org/2000/svg">
<path d="M6.906 1.38399C7.21627 1.13544 7.60195 1 7.9995 1C8.39705 1 8.78273 1.13544 9.093 1.38399L14.343 5.58399C14.758 5.91599 15 6.41899 15 6.95099V13.97C15 14.4341 14.8156 14.8792 14.4874 15.2074C14.1592 15.5356 13.7141 15.72 13.25 15.72H9.75C9.55109 15.72 9.36032 15.641 9.21967 15.5003C9.07902 15.3597 9 15.1689 9 14.97V9.71999H7V14.97C7 15.1689 6.92098 15.3597 6.78033 15.5003C6.63968 15.641 6.44891 15.72 6.25 15.72H2.75C2.28587 15.72 1.84075 15.5356 1.51256 15.2074C1.18437 14.8792 1 14.4341 1 13.97V6.94999C1 6.41899 1.242 5.91599 1.657 5.58399L6.906 1.38399ZM8.156 2.55499C8.1117 2.51961 8.05669 2.50034 8 2.50034C7.94331 2.50034 7.8883 2.51961 7.844 2.55499L2.594 6.75499C2.56459 6.77847 2.54086 6.8083 2.52458 6.84224C2.50831 6.87617 2.4999 6.91335 2.5 6.95099V13.97C2.5 14.108 2.612 14.22 2.75 14.22H5.5V8.96999C5.5 8.77108 5.57902 8.58031 5.71967 8.43966C5.86032 8.29901 6.05109 8.21999 6.25 8.21999H9.75C9.94891 8.21999 10.1397 8.29901 10.2803 8.43966C10.421 8.58031 10.5 8.77108 10.5 8.96999V14.22H13.25C13.3163 14.22 13.3799 14.1936 13.4268 14.1468C13.4737 14.0999 13.5 14.0363 13.5 13.97V6.94999C13.4999 6.91252 13.4915 6.87554 13.4752 6.84179C13.4589 6.80803 13.4353 6.77837 13.406 6.75499L8.156 2.55499Z" fill="#7E828A" stroke="white" stroke-width="0.2"/>
</svg>
