<svg width="16" height="20" viewBox="0 0 16 20" fill="none" xmlns="http://www.w3.org/2000/svg">
<path d="M2.67678 0C1.20162 0 0 1.1968 0 2.66951V17.3305C0 18.8032 1.20162 20 2.67678 20H12.6305C14.1052 20 15.3071 18.8032 15.3071 17.3305V2.66951C15.3071 1.1968 14.1052 0 12.6305 0H2.67678ZM2.67678 0.795172H12.6305C13.6795 0.795172 14.5119 1.62467 14.5119 2.66951V17.3305C14.5119 18.3753 13.6795 19.2048 12.6305 19.2048H2.67678C1.62715 19.2048 0.795172 18.3753 0.795172 17.3305V2.66951C0.795172 1.62467 1.62715 0.795172 2.67678 0.795172ZM3.37948 2.37842C2.84444 2.37842 2.39983 2.82283 2.39983 3.35818V5.01241C2.39983 5.54777 2.84444 5.99219 3.37948 5.99219H12.1052C12.6403 5.99219 13.0849 5.54777 13.0849 5.01241V3.35818C13.0849 2.82283 12.6403 2.37842 12.1052 2.37842H3.37948ZM3.37948 3.17359H12.1052C12.2148 3.17359 12.2897 3.25086 12.2897 3.35818V5.01241C12.2897 5.11976 12.2148 5.19702 12.1052 5.19702H3.37948C3.2702 5.19702 3.195 5.11976 3.195 5.01241V3.35818C3.195 3.25086 3.2702 3.17359 3.37948 3.17359ZM2.8967 7.90911C2.41301 7.90911 2.00929 8.30533 2.00929 8.78948V9.96807C2.00929 10.4522 2.41301 10.8555 2.8967 10.8555H4.03266C4.51658 10.8555 4.92007 10.4522 4.92007 9.96807V8.78948C4.92007 8.30533 4.51658 7.90911 4.03266 7.90911H2.8967ZM7.14246 7.90911C6.65854 7.90911 6.25505 8.30533 6.25505 8.78948V9.96807C6.25505 10.4522 6.65854 10.8555 7.14246 10.8555H8.27842C8.76212 10.8555 9.16584 10.4524 9.16584 9.96807V8.78948C9.16584 8.30511 8.76212 7.90911 8.27842 7.90911H7.14246ZM11.381 7.90911C10.897 7.90911 10.4935 8.30556 10.4935 8.78948V9.96807C10.4935 10.452 10.897 10.8555 11.381 10.8555H12.5169C13.0006 10.8555 13.4043 10.4524 13.4043 9.96807V8.78948C13.4043 8.30511 13.0006 7.90911 12.5169 7.90911H11.381ZM2.8967 8.70428H4.03266C4.09105 8.70428 4.1249 8.7332 4.1249 8.78948V9.96807C4.1249 10.0243 4.09105 10.0603 4.03266 10.0603H2.8967C2.83808 10.0603 2.80446 10.0243 2.80446 9.96807V8.78948C2.80446 8.7332 2.83808 8.70428 2.8967 8.70428ZM7.14246 8.70428H8.27842C8.33659 8.70428 8.37066 8.73343 8.37066 8.78948V9.96807C8.37066 10.0241 8.33659 10.0603 8.27842 10.0603H7.14246C7.08407 10.0603 7.05022 10.0243 7.05022 9.96807V8.78948C7.05022 8.7332 7.08407 8.70428 7.14246 8.70428ZM11.381 8.70428H12.5169C12.5749 8.70428 12.6092 8.73343 12.6092 8.78948V9.96807C12.6092 10.0241 12.5749 10.0603 12.5169 10.0603H11.381C11.3223 10.0603 11.2887 10.0246 11.2887 9.96807V8.78948C11.2887 8.73298 11.3223 8.70428 11.381 8.70428ZM7.14246 11.4945C6.65854 11.4945 6.25505 11.8907 6.25505 12.3749V13.5534C6.25505 14.0376 6.65854 14.4409 7.14246 14.4409H8.27842C8.76212 14.4409 9.16584 14.0378 9.16584 13.5534V12.3749C9.16584 11.8905 8.76212 11.4945 8.27842 11.4945H7.14246ZM11.381 11.4945C10.897 11.4945 10.4935 11.8909 10.4935 12.3749V13.5534C10.4935 14.0374 10.897 14.4409 11.381 14.4409H12.5169C13.0006 14.4409 13.4043 14.0378 13.4043 13.5534V12.3749C13.4043 11.8905 13.0006 11.4945 12.5169 11.4945H11.381ZM2.47776 11.53C2.22762 11.53 2.00929 11.7453 2.00929 11.9986V17.8559C2.00929 18.1051 2.2308 18.3245 2.47776 18.3245H4.45864C4.70992 18.3245 4.92007 18.1074 4.92007 17.8559V11.9986C4.92007 11.7492 4.70765 11.53 4.45864 11.53H2.47776ZM7.14246 12.2897H8.27842C8.33659 12.2897 8.37066 12.3188 8.37066 12.3749V13.5534C8.37066 13.6095 8.33659 13.6457 8.27842 13.6457H7.14246C7.08407 13.6457 7.05022 13.6097 7.05022 13.5534V12.3749C7.05022 12.3186 7.08407 12.2897 7.14246 12.2897ZM11.381 12.2897H12.5169C12.5749 12.2897 12.6092 12.3188 12.6092 12.3749V13.5534C12.6092 13.6095 12.5749 13.6457 12.5169 13.6457H11.381C11.3223 13.6457 11.2887 13.61 11.2887 13.5534V12.3749C11.2887 12.3184 11.3223 12.2897 11.381 12.2897ZM2.80446 12.3252H4.1249V17.5293H2.80446V12.3252ZM7.14246 15.1225C6.65854 15.1225 6.25505 15.5187 6.25505 16.0028V17.1814C6.25505 17.6655 6.65854 18.0689 7.14246 18.0689H8.27842C8.76212 18.0689 9.16584 17.6658 9.16584 17.1814V16.0028C9.16584 15.5185 8.76212 15.1225 8.27842 15.1225H7.14246ZM11.381 15.1225C10.897 15.1225 10.4935 15.5189 10.4935 16.0028V17.1814C10.4935 17.6653 10.897 18.0689 11.381 18.0689H12.5169C13.0006 18.0689 13.4043 17.6658 13.4043 17.1814V16.0028C13.4043 15.5185 13.0006 15.1225 12.5169 15.1225H11.381ZM7.14246 15.9176H8.27842C8.33659 15.9176 8.37066 15.9468 8.37066 16.0028V17.1814C8.37066 17.2374 8.33659 17.2737 8.27842 17.2737H7.14246C7.08407 17.2737 7.05022 17.2377 7.05022 17.1814V16.0028C7.05022 15.9466 7.08407 15.9176 7.14246 15.9176ZM11.381 15.9176H12.5169C12.5749 15.9176 12.6092 15.9468 12.6092 16.0028V17.1814C12.6092 17.2374 12.5749 17.2737 12.5169 17.2737H11.381C11.3223 17.2737 11.2887 17.2379 11.2887 17.1814V16.0028C11.2887 15.9463 11.3223 15.9176 11.381 15.9176Z" fill="#7E828A"/>
</svg>
