<svg width="23" height="20" viewBox="0 0 23 20" fill="none" xmlns="http://www.w3.org/2000/svg">
<path d="M18.5167 1.66942H15.6174V0.768653C15.6174 0.344168 15.2732 0 14.8487 0C14.4243 0 14.0801 0.344168 14.0801 0.768653V1.66942H8.24463V0.768653C8.24463 0.344168 7.90047 0 7.47598 0C7.05149 0 6.70733 0.344168 6.70733 0.768653V1.66942H3.80799C1.70808 1.66942 0 3.37768 0 5.47759V16.2423C0 18.3144 1.68556 20 3.75732 20H18.5674C20.6392 20 22.3247 18.3144 22.3247 16.2423V5.47759C22.3247 3.37768 20.6167 1.66942 18.5167 1.66942ZM3.80799 3.20673H6.70733V3.65279C6.70733 4.07728 7.05149 4.42145 7.47598 4.42145C7.90047 4.42145 8.24463 4.07728 8.24463 3.65279V3.20673H14.0801V3.65279C14.0801 4.07728 14.4243 4.42145 14.8487 4.42145C15.2732 4.42145 15.6174 4.07728 15.6174 3.65279V3.20673H18.5167C19.7688 3.20673 20.7874 4.22534 20.7874 5.47759V6.20665H1.53731V5.47759C1.53731 4.22534 2.55592 3.20673 3.80799 3.20673ZM18.5674 18.4627H3.75732C2.53303 18.4627 1.53731 17.4666 1.53731 16.2423V7.74396H20.7874V16.2423C20.7874 17.4666 19.7917 18.4627 18.5674 18.4627Z" fill="#7E828A"/>
<path d="M6.02913 10.0184H4.88065C4.45617 10.0184 4.112 10.3626 4.112 10.7871C4.112 11.2115 4.45617 11.5557 4.88065 11.5557H6.02913C6.45361 11.5557 6.79778 11.2115 6.79778 10.7871C6.79778 10.3626 6.45361 10.0184 6.02913 10.0184Z" fill="#7E828A"/>
<path d="M11.7366 10.0184H10.5881C10.1636 10.0184 9.81946 10.3626 9.81946 10.7871C9.81946 11.2115 10.1636 11.5557 10.5881 11.5557H11.7366C12.1611 11.5557 12.5052 11.2115 12.5052 10.7871C12.5052 10.3626 12.1611 10.0184 11.7366 10.0184Z" fill="#7E828A"/>
<path d="M17.4441 10.0184H16.2956C15.8711 10.0184 15.527 10.3626 15.527 10.7871C15.527 11.2115 15.8711 11.5557 16.2956 11.5557H17.4441C17.8686 11.5557 18.2128 11.2115 18.2128 10.7871C18.2128 10.3626 17.8686 10.0184 17.4441 10.0184Z" fill="#7E828A"/>
<path d="M6.02913 13.9611H4.88065C4.45617 13.9611 4.112 14.3053 4.112 14.7297C4.112 15.1542 4.45617 15.4984 4.88065 15.4984H6.02913C6.45361 15.4984 6.79778 15.1542 6.79778 14.7297C6.79778 14.3053 6.45361 13.9611 6.02913 13.9611Z" fill="#7E828A"/>
<path d="M11.7366 13.9611H10.5881C10.1636 13.9611 9.81946 14.3053 9.81946 14.7297C9.81946 15.1542 10.1636 15.4984 10.5881 15.4984H11.7366C12.1611 15.4984 12.5052 15.1542 12.5052 14.7297C12.5052 14.3053 12.1611 13.9611 11.7366 13.9611Z" fill="#7E828A"/>
<path d="M17.4441 13.9611H16.2956C15.8711 13.9611 15.527 14.3053 15.527 14.7297C15.527 15.1542 15.8711 15.4984 16.2956 15.4984H17.4441C17.8686 15.4984 18.2128 15.1542 18.2128 14.7297C18.2128 14.3053 17.8686 13.9611 17.4441 13.9611Z" fill="#7E828A"/>
</svg>
