<svg width="23" height="24" viewBox="0 0 23 24" fill="none" xmlns="http://www.w3.org/2000/svg">
<path d="M8.00824 10.1964H8.10824V10.0964V9.09638C8.10824 7.49731 9.40917 6.19638 11.0082 6.19638C12.6073 6.19638 13.9082 7.49731 13.9082 9.09638V10.0964V10.1964H14.0082C14.5052 10.1964 14.9082 10.5994 14.9082 11.0964V16.0964C14.9082 16.5934 14.5052 16.9964 14.0082 16.9964H8.00824C7.51127 16.9964 7.10824 16.5934 7.10824 16.0964V11.0964C7.10824 10.5994 7.51127 10.1964 8.00824 10.1964ZM13.0082 15.1964H13.1082V15.0964V12.0964V11.9964H13.0082H9.00824H8.90824V12.0964V15.0964V15.1964H9.00824H13.0082ZM9.90824 10.0964V10.1964H10.0082H12.0082H12.1082V10.0964V9.09638C12.1082 8.48985 11.6148 7.99638 11.0082 7.99638C10.4017 7.99638 9.90824 8.48985 9.90824 9.09638V10.0964Z" fill="black" stroke="white" stroke-width="0.2"/>
<path d="M4.76901 2.13626L4.7704 2.32241L4.92484 2.21847C9.13333 -0.613942 14.9067 -0.19567 18.6577 3.49975L18.7279 3.42851L18.6577 3.49975C21.9403 6.73332 22.8255 11.6034 20.9359 15.7662C20.8431 15.9704 20.5868 16.0563 20.3823 15.9519L19.4899 15.4959C19.3026 15.4001 19.2284 15.1747 19.3174 14.9757C20.8671 11.5106 20.1223 7.46937 17.3948 4.78208C13.8213 1.2613 8.04954 1.30432 4.5259 4.8778L4.52585 4.87785C4.2701 5.13756 3.88438 5.21717 3.54629 5.08045C3.20926 4.94374 2.98731 4.61722 2.9847 4.2529L2.9847 4.25286L2.9567 0.510265L2.9567 0.510253C2.95502 0.289387 3.13278 0.108911 3.35373 0.107311L3.35373 0.107311L4.35373 0.100011C4.35373 0.100011 4.35373 0.100011 4.35373 0.100011C4.57464 0.0984136 4.75503 0.276109 4.75671 0.496974L4.76901 2.13626Z" fill="black" stroke="white" stroke-width="0.2"/>
<path d="M17.4905 18.3149L17.4906 18.3149C17.7463 18.0552 18.1316 17.9756 18.4703 18.1124C18.8072 18.2491 19.0291 18.5756 19.0317 18.9398V18.9398L19.0597 22.6824C19.0614 22.9033 18.8836 23.0838 18.6627 23.0854L17.6626 23.0927C17.4418 23.0943 17.2614 22.9166 17.2597 22.6957L17.2474 21.0564L17.246 20.8703L17.0916 20.9742C12.8831 23.8061 7.1097 23.3883 3.3587 19.6929L3.28851 19.7641L3.35869 19.6929C0.0760709 16.4593 -0.809049 11.5892 1.08057 7.42658C1.17332 7.2224 1.42966 7.13645 1.63411 7.2409C1.63412 7.2409 1.63412 7.2409 1.63412 7.2409L2.52649 7.69688C2.71377 7.79265 2.78798 8.01809 2.69902 8.21703C1.14935 11.6822 1.8941 15.7234 4.62163 18.4107C8.19557 21.9318 13.9684 21.8899 17.4905 18.3149Z" fill="black" stroke="white" stroke-width="0.2"/>
</svg>
