<svg width="31" height="26" viewBox="0 0 31 26" fill="none" xmlns="http://www.w3.org/2000/svg">
<path fill-rule="evenodd" clip-rule="evenodd" d="M8.09538 21.1193H6.65407C3.22527 21.1193 0.436005 18.4447 0.436005 15.1573C0.436005 12.2275 2.65262 9.78413 5.56205 9.2877C5.48296 8.85264 5.44325 8.41177 5.44325 7.96766C5.44325 3.67647 9.11373 0.184998 13.6257 0.184998C17.6346 0.184998 21.0217 2.99594 21.6877 6.65698C22.0607 6.60498 22.443 6.57882 22.8313 6.57882C27.0245 6.57882 30.436 9.83517 30.436 13.8376C30.436 17.8526 27.0249 21.1193 22.8313 21.1193H21.334C20.7715 21.1193 20.3156 20.6855 20.3156 20.1504C20.3156 19.6152 20.7715 19.1814 21.334 19.1814H22.8313C25.9016 19.1814 28.3993 16.7842 28.4 13.8379C28.4 10.9039 25.9023 8.51706 22.832 8.51706C22.2243 8.51706 21.6429 8.60201 21.1035 8.76963C20.7963 8.86524 20.4602 8.81647 20.1968 8.63818C19.9337 8.45989 19.7752 8.17373 19.7691 7.86657C19.707 4.69969 16.9513 2.12323 13.6261 2.12323C10.2373 2.12323 7.48029 4.74491 7.48029 7.96798C7.48029 8.61266 7.59231 9.24959 7.81193 9.861C7.92056 10.1627 7.86625 10.496 7.66631 10.7521C7.46671 11.0079 7.1568 11.1529 6.81191 11.1429C6.77186 11.1413 6.73214 11.1387 6.69276 11.1362L6.65033 11.1336C4.34852 11.1336 2.47271 12.9384 2.47271 15.1573C2.47271 17.3762 4.34852 19.1814 6.65407 19.1814H8.09538C8.65785 19.1814 9.11373 19.6152 9.11373 20.1504C9.11373 20.6855 8.65785 21.1193 8.09538 21.1193ZM15.9027 24.2159C15.9027 24.7511 15.4468 25.1849 14.8844 25.1849C14.3219 25.1849 13.866 24.7511 13.866 24.2159V17.036L11.6453 19.1489C11.2475 19.5271 10.6032 19.5271 10.2054 19.1489C9.80755 18.7704 9.80755 18.1567 10.2054 17.7785L14.2153 13.9631C14.5972 13.5997 15.2734 13.5997 15.6553 13.9631L19.6652 17.7782C20.063 18.1567 20.063 18.7704 19.6652 19.1486C19.4663 19.3379 19.2056 19.4325 18.9452 19.4325C18.6849 19.4325 18.4242 19.3379 18.2253 19.1489L15.9027 16.9394V24.2159Z" fill="#495057"/>
</svg>
