<svg width="20" height="16" viewBox="0 0 20 16" fill="none" xmlns="http://www.w3.org/2000/svg">
<path d="M5.6 0H3.2C1.432 0 0 1.432 0 3.2V12.8C0 14.568 1.432 16 3.2 16H5.6C7.368 16 8.8 14.568 8.8 12.8V3.2C8.8 1.432 7.368 0 5.6 0ZM7.2 12.8C7.2 13.68 6.48 14.4 5.6 14.4H3.2C2.32 14.4 1.6 13.68 1.6 12.8V3.2C1.6 2.32 2.32 1.6 3.2 1.6H5.6C6.48 1.6 7.2 2.32 7.2 3.2V12.8Z" fill="#EE4036"/>
<path d="M16.8 0H12.8C11.48 0 10.4 1.08 10.4 2.4V4.8C10.4 6.12 11.48 7.2 12.8 7.2H16.8C18.12 7.2 19.2 6.12 19.2 4.8V2.4C19.2 1.08 18.12 0 16.8 0ZM17.6 4.8C17.6 5.24 17.24 5.6 16.8 5.6H12.8C12.36 5.6 12 5.24 12 4.8V2.4C12 1.96 12.36 1.6 12.8 1.6H16.8C17.24 1.6 17.6 1.96 17.6 2.4V4.8Z" fill="#EE4036"/>
<path d="M16.8 8.79999H12.8C11.48 8.79999 10.4 9.87999 10.4 11.2V13.6C10.4 14.92 11.48 16 12.8 16H16.8C18.12 16 19.2 14.92 19.2 13.6V11.2C19.2 9.87999 18.12 8.79999 16.8 8.79999ZM17.6 13.6C17.6 14.04 17.24 14.4 16.8 14.4H12.8C12.36 14.4 12 14.04 12 13.6V11.2C12 10.76 12.36 10.4 12.8 10.4H16.8C17.24 10.4 17.6 10.76 17.6 11.2V13.6Z" fill="#EE4036"/>
</svg>
