<svg width="9" height="5" viewBox="0 0 9 5" fill="none" xmlns="http://www.w3.org/2000/svg">
<path d="M4.33707 3.50676L1.05768 0.227881C0.9413 0.111854 0.783561 0.0467739 0.619163 0.0469599C0.454765 0.0471454 0.297174 0.112581 0.181058 0.228871C0.064943 0.345161 -0.000185572 0.50278 3.97174e-07 0.667054C0.000186367 0.831327 0.0656715 0.988799 0.18205 1.10483L3.89777 4.81971C4.01058 4.93202 4.16238 4.99654 4.32159 4.99987C4.4808 5.00319 4.63517 4.94505 4.75257 4.83754L8.49407 1.10681C8.5517 1.04936 8.59743 0.981127 8.62867 0.906014C8.65991 0.830901 8.67603 0.750375 8.67612 0.669035C8.67621 0.587696 8.66027 0.507134 8.62921 0.431951C8.59814 0.356767 8.55256 0.288435 8.49506 0.230854C8.43757 0.173273 8.36929 0.127571 8.29412 0.0963583C8.21895 0.065146 8.13836 0.0490346 8.05696 0.0489426C7.97556 0.0488505 7.89494 0.0647793 7.81969 0.0958219C7.74445 0.126864 7.67607 0.17241 7.61844 0.229862L4.33707 3.50676Z" fill="#95A6B7"/>
</svg>
