<svg width="21" height="21" viewBox="0 0 21 21" fill="none" xmlns="http://www.w3.org/2000/svg">
<path d="M1.16667 7C0.836111 7 0.559222 6.888 0.336 6.664C0.112 6.44078 0 6.16389 0 5.83333V1.16667C0 0.836111 0.112 0.558833 0.336 0.334833C0.559222 0.111611 0.836111 0 1.16667 0H5.83333C6.16389 0 6.44117 0.111611 6.66517 0.334833C6.88839 0.558833 7 0.836111 7 1.16667C7 1.49722 6.88839 1.77411 6.66517 1.99733C6.44117 2.22133 6.16389 2.33333 5.83333 2.33333H3.96667L6.79583 5.1625C7.00972 5.37639 7.11667 5.63889 7.11667 5.95C7.11667 6.26111 7 6.53333 6.76667 6.76667C6.55278 6.98056 6.28056 7.0875 5.95 7.0875C5.61944 7.0875 5.34722 6.98056 5.13333 6.76667L2.33333 3.96667V5.83333C2.33333 6.16389 2.22172 6.44078 1.9985 6.664C1.7745 6.888 1.49722 7 1.16667 7ZM14.2333 6.76667C14.0194 6.55278 13.9125 6.28056 13.9125 5.95C13.9125 5.61944 14.0194 5.34722 14.2333 5.13333L17.0333 2.33333H15.1667C14.8361 2.33333 14.5592 2.22133 14.336 1.99733C14.112 1.77411 14 1.49722 14 1.16667C14 0.836111 14.112 0.558833 14.336 0.334833C14.5592 0.111611 14.8361 0 15.1667 0H19.8333C20.1639 0 20.4408 0.111611 20.664 0.334833C20.888 0.558833 21 0.836111 21 1.16667V5.83333C21 6.16389 20.888 6.44078 20.664 6.664C20.4408 6.888 20.1639 7 19.8333 7C19.5028 7 19.2259 6.888 19.0027 6.664C18.7787 6.44078 18.6667 6.16389 18.6667 5.83333V3.96667L15.8375 6.79583C15.6236 7.00972 15.3611 7.11667 15.05 7.11667C14.7389 7.11667 14.4667 7 14.2333 6.76667ZM15.1667 21C14.8361 21 14.5592 20.888 14.336 20.664C14.112 20.4408 14 20.1639 14 19.8333C14 19.5028 14.112 19.2259 14.336 19.0027C14.5592 18.7787 14.8361 18.6667 15.1667 18.6667H17.0333L14.2042 15.8375C13.9903 15.6236 13.8833 15.3611 13.8833 15.05C13.8833 14.7389 14 14.4667 14.2333 14.2333C14.4472 14.0194 14.7194 13.9125 15.05 13.9125C15.3806 13.9125 15.6528 14.0194 15.8667 14.2333L18.6667 17.0333V15.1667C18.6667 14.8361 18.7787 14.5588 19.0027 14.3348C19.2259 14.1116 19.5028 14 19.8333 14C20.1639 14 20.4408 14.1116 20.664 14.3348C20.888 14.5588 21 14.8361 21 15.1667V19.8333C21 20.1639 20.888 20.4408 20.664 20.664C20.4408 20.888 20.1639 21 19.8333 21H15.1667ZM1.16667 21C0.836111 21 0.559222 20.888 0.336 20.664C0.112 20.4408 0 20.1639 0 19.8333V15.1667C0 14.8361 0.112 14.5588 0.336 14.3348C0.559222 14.1116 0.836111 14 1.16667 14C1.49722 14 1.7745 14.1116 1.9985 14.3348C2.22172 14.5588 2.33333 14.8361 2.33333 15.1667V17.0333L5.1625 14.2042C5.37639 13.9903 5.63889 13.8833 5.95 13.8833C6.26111 13.8833 6.53333 14 6.76667 14.2333C6.98056 14.4472 7.0875 14.7194 7.0875 15.05C7.0875 15.3806 6.98056 15.6528 6.76667 15.8667L3.96667 18.6667H5.83333C6.16389 18.6667 6.44117 18.7787 6.66517 19.0027C6.88839 19.2259 7 19.5028 7 19.8333C7 20.1639 6.88839 20.4408 6.66517 20.664C6.44117 20.888 6.16389 21 5.83333 21H1.16667Z" fill="#EE4036"/>
</svg>
