<svg width="20" height="23" viewBox="0 0 20 23" fill="none" xmlns="http://www.w3.org/2000/svg">
<path d="M17.7778 10.7224C17.2222 10.8648 16.6667 10.9524 16.1111 10.9524C14.4912 10.9495 12.9386 10.3139 11.7931 9.18485C10.6477 8.0558 10.0029 6.5253 10 4.92858C10 3.31858 10.6444 1.86191 11.6667 0.777625C11.465 0.533979 11.2108 0.337744 10.9225 0.203221C10.6341 0.0686967 10.319 -0.00072779 10 5.75294e-06C8.77778 5.75294e-06 7.77778 0.98572 7.77778 2.19048V2.5081C4.47778 3.47191 2.22222 6.46191 2.22222 9.85715V16.4286L0 18.619V19.7143H20V18.619L17.7778 16.4286V10.7224ZM10 23C11.2333 23 12.2222 22.0252 12.2222 20.8095H7.77778C7.77778 21.3905 8.01191 21.9476 8.42865 22.3584C8.8454 22.7692 9.41063 23 10 23Z" fill="#EE4036"/>
<path d="M16.1111 8.76188C18.2555 8.76188 19.9999 7.04236 19.9999 4.92855C19.9999 2.81474 18.2555 1.09521 16.1111 1.09521C13.9666 1.09521 12.2222 2.81474 12.2222 4.92855C12.2222 7.04236 13.9666 8.76188 16.1111 8.76188Z" fill="#650500"/>
</svg>
