<svg width="22" height="18" viewBox="0 0 22 18" fill="none" xmlns="http://www.w3.org/2000/svg">
<path d="M20.8699 9.89368C20.3746 9.29072 19.6209 8.94616 18.8241 8.94616H15.271C15.2494 8.92463 15.2279 8.9031 15.2064 8.88156C14.668 8.23553 13.8497 7.84792 13.0099 7.84792H9.47824C8.61687 7.84792 7.82009 8.214 7.28173 8.88156C7.2602 8.9031 7.23867 8.92463 7.21713 8.94616H3.66397C2.8672 8.94616 2.13503 9.29072 1.61821 9.89368C1.12292 10.4966 0.90757 11.2934 1.03678 12.0471L1.57513 15.7079C1.70434 16.4616 2.35037 17 3.10407 17H19.341C20.0947 17 20.7407 16.4616 20.8699 15.7079L21.3867 12.0902C21.6021 11.2934 21.3867 10.4966 20.8699 9.89368ZM9.49977 8.83849H13.0314C13.5913 8.83849 14.1081 9.07538 14.4527 9.50606C14.7972 9.93675 14.948 10.4751 14.8618 11.035L14.2804 15.4711C14.2158 15.7725 13.9574 15.9879 13.6344 15.9879H8.89681C8.59533 15.9879 8.31538 15.7725 8.25078 15.4711L7.66935 11.0781V11.0565C7.56168 10.5182 7.71242 9.95828 8.05697 9.52759C8.42305 9.07537 8.96141 8.83849 9.49977 8.83849ZM2.60878 15.5357L2.07042 11.8748C1.98428 11.4011 2.1135 10.9058 2.41498 10.5182C2.73799 10.1521 3.19021 9.91521 3.6855 9.91521H6.72185C6.61418 10.3244 6.59263 10.7335 6.65723 11.1642L7.23866 15.5572V15.5787C7.2602 15.7079 7.30327 15.8156 7.34634 15.9233H3.12561C2.88873 15.9663 2.65185 15.7726 2.60878 15.5357ZM20.4608 11.8964L19.9439 15.5141C19.9009 15.7726 19.664 15.9664 19.4056 15.9664H15.1848C15.2279 15.8587 15.271 15.7295 15.2925 15.6218L15.8739 11.1857C15.9601 10.7551 15.9385 10.3459 15.8093 9.93675H18.8457C19.341 9.93675 19.7932 10.1521 20.1162 10.5397C20.4177 10.9058 20.5469 11.4011 20.4608 11.8964Z" fill="#7E828A" stroke="#848484" stroke-width="0.2"/>
<path d="M17.2306 8.32167C18.5657 8.32167 19.6424 7.24495 19.6424 5.90982V5.04845C19.6424 3.71332 18.5657 2.6366 17.2306 2.6366C15.8955 2.6366 14.8187 3.71332 14.8187 5.04845V5.90982C14.7972 7.22341 15.8955 8.32167 17.2306 8.32167ZM15.8093 5.0269C15.8093 4.25167 16.4338 3.62717 17.2091 3.62717C17.9843 3.62717 18.6088 4.25167 18.6088 5.0269V5.88828C18.6088 6.66351 17.9843 7.28801 17.2091 7.28801C16.4338 7.28801 15.8093 6.66351 15.8093 5.88828V5.0269Z" fill="#7E828A" stroke="#848484" stroke-width="0.2"/>
<path d="M5.30058 8.32167C6.63571 8.32167 7.71243 7.24495 7.71243 5.90982V5.04845C7.71243 3.71332 6.63571 2.6366 5.30058 2.6366C3.96545 2.6366 2.88873 3.71332 2.88873 5.04845V5.90982C2.88873 7.22341 3.96545 8.32167 5.30058 8.32167ZM3.90085 5.0269C3.90085 4.25167 4.52535 3.62717 5.30058 3.62717C6.07582 3.62717 6.70031 4.25167 6.70031 5.0269V5.88828C6.70031 6.66351 6.07582 7.28801 5.30058 7.28801C4.52535 7.28801 3.90085 6.66351 3.90085 5.88828V5.0269Z" fill="#7E828A" stroke="#848484" stroke-width="0.2"/>
<path d="M11.2656 7.13729C12.7084 7.13729 13.8712 5.97442 13.8712 4.53162V3.60565C13.8712 2.16285 12.7084 1 11.2656 1C9.82279 1 8.65994 2.16285 8.65994 3.60565V4.55317C8.65994 5.97443 9.82279 7.13729 11.2656 7.13729ZM9.67205 3.60565C9.67205 2.72274 10.3827 2.0121 11.2656 2.0121C12.1485 2.0121 12.8591 2.72274 12.8591 3.60565V4.55317C12.8591 5.43607 12.1485 6.1467 11.2656 6.1467C10.3827 6.1467 9.67205 5.43607 9.67205 4.55317V3.60565Z" fill="#7E828A" stroke="#848484" stroke-width="0.2"/>
</svg>
