<svg width="20" height="20" viewBox="0 0 20 20" fill="none" xmlns="http://www.w3.org/2000/svg">
<path d="M19.1 10C19.1 4.87036 14.9228 0.9 10 0.9C4.97478 0.9 0.9 4.97478 0.9 10C0.9 15.0252 4.97478 19.1 10 19.1C15.0252 19.1 19.1 15.0252 19.1 10ZM9.66312 11.1806L18.1695 11.1797C17.5904 15.228 14.1077 18.2536 10 18.2536C5.44208 18.2536 1.7464 14.5579 1.7464 10C1.7464 5.7319 5.00536 2.1677 9.23992 1.78124V10.7574C9.23992 10.9907 9.42981 11.1806 9.66312 11.1806ZM18.2453 10.334H10.0863V1.74699C14.6063 1.80031 18.2529 5.4636 18.2536 9.99875L18.2453 10.334Z" fill="black" stroke="black" stroke-width="0.2"/>
</svg>
