<svg width="20" height="20" viewBox="0 0 20 20" fill="none" xmlns="http://www.w3.org/2000/svg">
<path d="M15.7895 10.5263C15.2105 10.5263 14.7368 11 14.7368 11.5789V17.0737C14.7368 17.6526 14.2632 18.1263 13.6842 18.1263H3.15789C2.57895 18.1263 2.10526 17.6526 2.10526 17.0737V6.31579C2.10526 5.73684 2.57895 5.26316 3.15789 5.26316H8.42105C9 5.26316 9.47368 4.78947 9.47368 4.21053C9.47368 3.63158 9 3.15789 8.42105 3.15789H2.10526C0.947368 3.15789 0 4.10526 0 5.26316V17.8947C0 19.0526 0.947368 20 2.10526 20H14.7368C15.8947 20 16.8421 19.0526 16.8421 17.8947V11.5789C16.8421 11 16.3684 10.5263 15.7895 10.5263ZM18.9684 3.15789H16.8421V1.03158C16.8421 0.463158 16.3789 0 15.8105 0H15.7789C15.2 0 14.7368 0.463158 14.7368 1.03158V3.15789H12.6211C12.0526 3.15789 11.5895 3.62105 11.5789 4.18947V4.22105C11.5789 4.8 12.0421 5.26316 12.6211 5.26316H14.7368V7.37895C14.7368 7.94737 15.2 8.42105 15.7789 8.41053H15.8105C16.3789 8.41053 16.8421 7.94737 16.8421 7.37895V5.26316H18.9684C19.5368 5.26316 20 4.8 20 4.23158V4.18947C20 3.62105 19.5368 3.15789 18.9684 3.15789Z" fill="#EE4036"/>
<path d="M11.5789 7.36841H5.26316C4.68421 7.36841 4.21053 7.84209 4.21053 8.42104C4.21053 8.99999 4.68421 9.47367 5.26316 9.47367H11.5789C12.1579 9.47367 12.6316 8.99999 12.6316 8.42104C12.6316 7.84209 12.1579 7.36841 11.5789 7.36841ZM11.5789 10.5263H5.26316C4.68421 10.5263 4.21053 11 4.21053 11.5789C4.21053 12.1579 4.68421 12.6316 5.26316 12.6316H11.5789C12.1579 12.6316 12.6316 12.1579 12.6316 11.5789C12.6316 11 12.1579 10.5263 11.5789 10.5263ZM11.5789 13.6842H5.26316C4.68421 13.6842 4.21053 14.1579 4.21053 14.7368C4.21053 15.3158 4.68421 15.7895 5.26316 15.7895H11.5789C12.1579 15.7895 12.6316 15.3158 12.6316 14.7368C12.6316 14.1579 12.1579 13.6842 11.5789 13.6842Z" fill="#EE4036"/>
</svg>
