<svg width="16" height="16" viewBox="0 0 16 16" fill="none" xmlns="http://www.w3.org/2000/svg">
<path d="M1.57721 6.56819e-06C1.47213 -0.000548393 1.36989 0.0340786 1.28678 0.0983706C1.20367 0.162663 1.14446 0.252921 1.1186 0.354765L0.0138846 4.7387C0.00870196 4.76414 0.00563303 4.78996 0.00470927 4.81591C0.00265855 4.82809 0.00108875 4.84036 3.42152e-06 4.85267V15.5276C-0.000233383 15.5897 0.011824 15.6512 0.0354805 15.7087C0.059137 15.7661 0.0939247 15.8182 0.137838 15.8622C0.181752 15.9061 0.233923 15.9409 0.291344 15.9645C0.348766 15.9882 0.410301 16.0002 0.472404 16H15.5313C15.6561 15.9995 15.7756 15.9494 15.8635 15.8609C15.9514 15.7723 16.0005 15.6524 16 15.5276V4.85267C16 4.85207 16 4.85326 16 4.85267C15.9999 4.81488 15.9953 4.77545 15.9862 4.73877L14.8815 0.354769C14.8558 0.253536 14.7971 0.163732 14.7147 0.0995044C14.6324 0.0352764 14.531 0.000273868 14.4265 1.01724e-05H9.53161H6.46837L1.57721 6.56819e-06ZM1.94208 0.942048H5.99975V4.38394H1.07356L1.94208 0.942048ZM6.94087 0.942048H9.06298V4.38394H6.94087V0.942048ZM10.0041 0.942048H14.0581L14.9266 4.38394H10.0041V0.942048ZM0.942136 5.32506H5.99975V9.24395C6.0003 9.33378 6.02655 9.42157 6.0754 9.49696C6.12425 9.57235 6.19366 9.63218 6.27542 9.66938C6.35718 9.70659 6.44788 9.71962 6.53681 9.70694C6.62574 9.69425 6.70918 9.65638 6.77727 9.59779L7.85809 8.66402L9.26794 9.63272C9.33866 9.68106 9.42123 9.70917 9.50676 9.71404C9.59228 9.71891 9.67751 9.70034 9.75326 9.66034C9.82901 9.62034 9.8924 9.56042 9.93661 9.48704C9.98081 9.41367 10.0042 9.32962 10.0041 9.24395V5.32506H15.059V15.0589H0.942136V5.32506ZM6.94087 5.32506H9.06298V8.34787L8.09062 7.68063C8.00498 7.6218 7.90229 7.59297 7.79855 7.59862C7.69481 7.60427 7.59586 7.64409 7.51712 7.71187L6.94087 8.21184V5.32506Z" fill="#7E828A"/>
</svg>
