<svg width="16" height="18" viewBox="0 0 16 18" fill="none" xmlns="http://www.w3.org/2000/svg">
<path d="M3.18182 17H12.2C13.0487 17.0005 13.8709 16.704 14.5238 16.1618C15.1768 15.6197 15.6194 14.8661 15.7749 14.0317C15.9304 13.1973 15.7889 12.3349 15.3751 11.5939C14.9612 10.8529 14.301 10.2802 13.5091 9.975V5.50909C13.5088 5.23915 13.4014 4.98036 13.2105 4.78949C13.0196 4.59861 12.7608 4.49124 12.4909 4.49091H10.3091V4.05455C10.3091 3.24443 9.98727 2.46749 9.41444 1.89466C8.8416 1.32182 8.06466 1 7.25455 1C6.44443 1 5.66749 1.32182 5.09466 1.89466C4.52182 2.46749 4.2 3.24443 4.2 4.05455V4.49091H2.01818C1.74824 4.49124 1.48946 4.59861 1.29858 4.78949C1.10771 4.98036 1.00033 5.23915 1 5.50909V14.8182C1.00063 15.3966 1.2307 15.9512 1.63974 16.3603C2.04877 16.7693 2.60336 16.9994 3.18182 17ZM14.9636 13.3636C14.9636 13.9102 14.8016 14.4446 14.4979 14.899C14.1942 15.3535 13.7626 15.7077 13.2576 15.9169C12.7526 16.1261 12.1969 16.1808 11.6608 16.0742C11.1247 15.9675 10.6323 15.7043 10.2458 15.3178C9.85931 14.9313 9.5961 14.4389 9.48947 13.9028C9.38283 13.3667 9.43756 12.811 9.64673 12.306C9.85591 11.801 10.2101 11.3694 10.6646 11.0658C11.1191 10.7621 11.6534 10.6 12.2 10.6C12.9327 10.6008 13.6352 10.8923 14.1533 11.4104C14.6714 11.9285 14.9628 12.6309 14.9636 13.3636ZM5.07273 4.05455C5.07273 3.47589 5.3026 2.92094 5.71177 2.51177C6.12094 2.1026 6.67589 1.87273 7.25455 1.87273C7.8332 1.87273 8.38815 2.1026 8.79732 2.51177C9.20649 2.92094 9.43636 3.47589 9.43636 4.05455V4.49091H5.07273V4.05455ZM1.87273 5.50909C1.87318 5.47065 1.88865 5.43392 1.91583 5.40674C1.94301 5.37956 1.97975 5.36409 2.01818 5.36364H4.2V6.67273C4.2 6.78846 4.24597 6.89945 4.32781 6.98128C4.40964 7.06312 4.52063 7.10909 4.63636 7.10909C4.75209 7.10909 4.86309 7.06312 4.94492 6.98128C5.02675 6.89945 5.07273 6.78846 5.07273 6.67273V5.36364H9.43636V6.67273C9.43636 6.78846 9.48234 6.89945 9.56417 6.98128C9.646 7.06312 9.757 7.10909 9.87273 7.10909C9.98846 7.10909 10.0994 7.06312 10.1813 6.98128C10.2631 6.89945 10.3091 6.78846 10.3091 6.67273V5.36364H12.4909C12.5293 5.36409 12.5661 5.37956 12.5933 5.40674C12.6204 5.43392 12.6359 5.47065 12.6364 5.50909V9.75604C11.8611 9.66115 11.076 9.81872 10.3974 10.2054C9.7188 10.592 9.18293 11.1871 8.8693 11.9024C8.55568 12.6176 8.481 13.415 8.65636 14.176C8.83172 14.9371 9.24776 15.6214 9.84276 16.1273H3.18182C2.83474 16.1269 2.50199 15.9888 2.25657 15.7434C2.01115 15.498 1.87311 15.1653 1.87273 14.8182V5.50909Z" fill="#7E828A" stroke="#848484" stroke-width="0.2"/>
<path d="M11.0687 13.0551C10.9868 12.9738 10.876 12.9282 10.7605 12.9284C10.6451 12.9286 10.5345 12.9746 10.4528 13.0562C10.3712 13.1379 10.3252 13.2485 10.325 13.364C10.3248 13.4794 10.3704 13.5902 10.4517 13.6722L11.4114 14.6321C11.4519 14.6726 11.5 14.7048 11.5529 14.7267C11.6058 14.7486 11.6626 14.7599 11.7199 14.7599C11.7772 14.7599 11.8339 14.7486 11.8869 14.7267C11.9398 14.7048 11.9879 14.6726 12.0284 14.6321L13.9483 12.7122C14.0298 12.6303 14.0756 12.5194 14.0755 12.4039C14.0754 12.2883 14.0294 12.1775 13.9477 12.0958C13.866 12.014 13.7552 11.9681 13.6396 11.968C13.524 11.9679 13.4131 12.0136 13.3312 12.0952L11.7199 13.7065L11.0687 13.0551Z" fill="#7E828A" stroke="#848484" stroke-width="0.2"/>
<path d="M4.63638 8.70909C4.95771 8.70909 5.2182 8.4486 5.2182 8.12727C5.2182 7.80594 4.95771 7.54546 4.63638 7.54546C4.31505 7.54546 4.05457 7.80594 4.05457 8.12727C4.05457 8.4486 4.31505 8.70909 4.63638 8.70909Z" fill="#7E828A" stroke="#848484" stroke-width="0.2"/>
<path d="M9.87273 8.70909C10.1941 8.70909 10.4545 8.4486 10.4545 8.12727C10.4545 7.80594 10.1941 7.54546 9.87273 7.54546C9.5514 7.54546 9.29091 7.80594 9.29091 8.12727C9.29091 8.4486 9.5514 8.70909 9.87273 8.70909Z" fill="#7E828A" stroke="#848484" stroke-width="0.2"/>
</svg>
