<svg width="22" height="17" viewBox="0 0 22 17" fill="none" xmlns="http://www.w3.org/2000/svg">
<path d="M17.5251 11.1571C15.5755 11.137 14.4881 11.3335 12.419 12.1787L12.0174 11.1949C14.2097 10.2998 15.4374 10.0729 17.5357 10.0947L17.5251 11.1571ZM12.419 10.0538C14.4881 9.20916 15.576 9.01208 17.5251 9.03226L17.5357 7.96982C15.4374 7.94804 14.2103 8.17487 12.0174 9.06998L12.419 10.0538ZM17.5251 6.90738C15.5755 6.8872 14.4881 7.08375 12.419 7.92892L12.0174 6.9451C14.2097 6.05 15.4374 5.82317 17.5357 5.84495L17.5251 6.90738ZM16.2023 4.24969V2.65604H17.2648V4.24969H16.2023ZM14.3431 3.18726V4.78091H15.4055V3.18726H14.3431ZM12.4838 5.31213V3.71848H13.5462V5.31213H12.4838ZM3.724 11.1571C5.67358 11.137 6.76098 11.3335 8.83008 12.1787L9.23169 11.1949C7.03934 10.2998 5.8117 10.0729 3.71338 10.0947L3.724 11.1571ZM8.83008 10.0538C6.76098 9.20916 5.67358 9.01208 3.724 9.03226L3.71338 7.96982C5.8117 7.94804 7.03881 8.17487 9.23169 9.06998L8.83008 10.0538ZM3.724 6.90738C5.67358 6.8872 6.76098 7.08375 8.83008 7.92892L9.23169 6.9451C7.03934 6.05 5.8117 5.82317 3.71338 5.84495L3.724 6.90738ZM5.04674 4.24969V2.65604H3.9843V4.24969H5.04674ZM6.90601 3.18726V4.78091H5.84357V3.18726H6.90601ZM8.76528 5.31213V3.71848H7.70284V5.31213H8.76528Z" fill="#7E828A"/>
<path fill-rule="evenodd" clip-rule="evenodd" d="M20.1863 1.5851C20.402 1.63238 20.6219 1.68338 20.8466 1.73756C20.9615 1.76547 21.0636 1.8312 21.1365 1.92419C21.2095 2.01718 21.249 2.132 21.2488 2.25019V15.817C21.2488 16.1533 20.9391 16.404 20.6092 16.3413C17.3087 15.7118 15.0845 15.6677 12.0449 16.1288C11.9115 16.391 11.7083 16.6111 11.4576 16.7649C11.2069 16.9186 10.9185 17 10.6244 17C10.3303 17 10.0419 16.9186 9.79122 16.7649C9.54051 16.6111 9.33724 16.391 9.20391 16.1288C6.1648 15.6677 3.93953 15.7118 0.639592 16.3413C0.562067 16.3564 0.482171 16.3542 0.405597 16.3349C0.329022 16.3155 0.257654 16.2795 0.196576 16.2295C0.135499 16.1794 0.0862157 16.1165 0.0522384 16.0452C0.0182612 15.9739 0.00042607 15.896 3.89234e-06 15.817V2.25072C-0.000451081 2.13242 0.0389922 2.01742 0.111961 1.92431C0.184929 1.8312 0.287161 1.7654 0.402137 1.73756C0.626843 1.68338 0.846768 1.63238 1.06244 1.5851V1.34074C1.06244 0.870611 1.37533 0.440855 1.85077 0.320799C5.11777 -0.500466 7.49657 0.369671 10.2212 1.63663C10.354 1.66425 10.4884 1.69188 10.6244 1.72162C10.7604 1.69188 10.8953 1.66425 11.0281 1.63663C13.7522 0.369671 16.131 -0.500466 19.398 0.32133C19.6242 0.379187 19.8245 0.510894 19.9674 0.695564C20.1102 0.880234 20.1872 1.1073 20.1863 1.34074V1.5851ZM19.1239 13.7946V1.34765C16.1183 0.595971 13.9801 1.41936 11.1556 2.75007V15.0967L11.1572 15.0977L11.1583 15.0983C11.1597 15.0991 11.1614 15.0996 11.163 15.0999H11.1646C11.1657 15.0996 11.1668 15.0992 11.1678 15.0988C13.7756 13.9184 16.0503 13.2486 19.0952 13.8042C19.0996 13.8051 19.104 13.805 19.1083 13.804C19.1126 13.803 19.1167 13.8011 19.1202 13.7984C19.1216 13.7973 19.1228 13.796 19.1239 13.7946ZM10.0916 15.0977L10.0932 15.0967V2.75007C7.26868 1.41989 5.13052 0.595971 2.12488 1.34765V13.7946L2.1286 13.7984C2.13212 13.8012 2.13623 13.8033 2.14064 13.8044C2.14504 13.8055 2.14964 13.8056 2.1541 13.8047C5.19799 13.2486 7.4732 13.9184 10.081 15.0983C10.0823 15.099 10.0837 15.0995 10.0852 15.0999C10.0873 15.0996 10.0898 15.0989 10.0916 15.0977Z" fill="#7E828A"/>
</svg>
