<svg width="22" height="22" viewBox="0 0 22 22" fill="none" xmlns="http://www.w3.org/2000/svg">
<path d="M20.8899 9.51226C20.522 7.07156 19.2651 4.85325 17.3609 3.28363C15.4567 1.71398 13.0398 0.903854 10.5747 1.00911C8.10941 1.11423 5.77007 2.12745 4.00646 3.85363C2.24284 5.57981 1.17949 7.89747 1.02071 10.3605C0.862063 12.8236 1.61918 15.2584 3.14661 17.1968C4.67404 19.1352 6.86379 20.4404 9.29515 20.8614C9.85951 20.9547 10.4306 21.0011 11.0026 21C12.4453 21.002 13.8714 20.6913 15.1826 20.0892C15.3987 19.9829 15.6438 19.9502 15.8801 19.9963L18.6337 20.6317C19.1916 20.7595 19.7754 20.5853 20.1719 20.1726C20.5683 19.7597 20.7192 19.169 20.5691 18.6168L19.8948 16.1376C19.8311 15.8795 19.8643 15.6072 19.9878 15.372C20.8749 13.5552 21.1894 11.5119 20.8899 9.51226ZM11.0025 5.41898C11.2491 5.41898 11.4857 5.51694 11.6601 5.69152C11.8344 5.86594 11.9324 6.10252 11.9324 6.34918C11.9324 6.59603 11.8344 6.83259 11.6601 7.00701C11.4857 7.18144 11.2491 7.27955 11.0025 7.27955C10.7558 7.27955 10.5192 7.18144 10.3448 7.00701C10.1705 6.83259 10.0725 6.59601 10.0725 6.34918C10.0725 6.1025 10.1705 5.86594 10.3448 5.69152C10.5192 5.51694 10.7558 5.41898 11.0025 5.41898ZM12.3974 16.3497H9.6075C9.35825 16.3497 9.128 16.2167 9.00345 16.0008C8.8789 15.785 8.8789 15.519 9.00345 15.3031C9.128 15.0873 9.35826 14.9543 9.6075 14.9543H10.305V9.79852C10.0971 9.72407 9.93678 9.55573 9.87246 9.34453C9.80801 9.1332 9.8474 8.90395 9.97833 8.72626C10.1094 8.54856 10.3166 8.44313 10.5374 8.4422H11.0024C11.1874 8.4422 11.3649 8.5157 11.4956 8.64652C11.6264 8.7775 11.6999 8.95488 11.6999 9.13989V14.9539H12.3974C12.6466 14.9539 12.8769 15.087 13.0014 15.3029C13.126 15.5187 13.126 15.7847 13.0014 16.0006C12.8769 16.2164 12.6466 16.3497 12.3974 16.3497Z" stroke="#7E828A"/>
</svg>
