<svg width="14" height="16" viewBox="0 0 14 16" fill="none" xmlns="http://www.w3.org/2000/svg">
<path d="M13.4772 3.61826L10.2573 0.39834C9.9917 0.13278 9.65975 0 9.29461 0H1.361C0.59751 0 0 0.59751 0 1.361V14.639C0 15.4025 0.59751 16 1.361 16H12.5145C13.278 16 13.8755 15.4025 13.8755 14.639V4.58091C13.8755 4.21577 13.7427 3.85062 13.4772 3.61826ZM12.8797 14.639C12.8797 14.8382 12.7137 15.0041 12.5145 15.0041H1.361C1.16183 15.0041 0.995851 14.8382 0.995851 14.639V1.361C0.995851 1.16183 1.16183 0.995851 1.361 0.995851H9.29461C9.39419 0.995851 9.49378 1.02905 9.56017 1.09544L12.7801 4.31535C12.8465 4.38174 12.8797 4.48133 12.8797 4.58091V14.639Z" fill="#7E828A"/>
<path d="M3.05395 9.72614C4.21577 9.72614 5.3776 9.72614 6.50623 9.72614C6.6722 9.72614 6.83818 9.72614 7.00415 9.72614C7.63486 9.72614 7.63486 8.73029 7.00415 8.73029C5.84233 8.73029 4.6805 8.73029 3.55187 8.73029C3.3859 8.73029 3.21992 8.73029 3.05395 8.73029C2.42324 8.73029 2.42324 9.72614 3.05395 9.72614Z" fill="#7E828A"/>
<path d="M10.8216 10.556C8.56431 10.556 6.30705 10.556 4.04979 10.556C3.71784 10.556 3.41908 10.556 3.08713 10.556C2.45643 10.556 2.45643 11.5519 3.08713 11.5519C5.3444 11.5519 7.60166 11.5519 9.85892 11.5519C10.1909 11.5519 10.4896 11.5519 10.8216 11.5519C11.4523 11.5519 11.4523 10.556 10.8216 10.556Z" fill="#7E828A"/>
<path d="M8.36515 12.4149C6.80498 12.4149 5.27801 12.4149 3.71785 12.4149C3.48548 12.4149 3.28631 12.4149 3.05395 12.4149C2.42324 12.4149 2.42324 13.4108 3.05395 13.4108C4.61411 13.4108 6.14108 13.4108 7.70125 13.4108C7.93361 13.4108 8.13278 13.4108 8.36515 13.4108C8.99585 13.4108 8.99585 12.4149 8.36515 12.4149Z" fill="#7E828A"/>
<path d="M4.0498 7.26971C4.64731 6.6722 5.24482 6.07469 5.84233 5.47718C6.43984 6.07469 7.03735 6.6722 7.63486 7.26971C7.83403 7.46888 8.13279 7.46888 8.33196 7.26971C9.06225 6.53942 9.79254 5.80913 10.5228 5.07884C10.9876 4.61411 10.2573 3.91701 9.82574 4.38174C9.22823 4.97926 8.59752 5.60996 8.00001 6.20747C7.4025 5.60996 6.80499 5.01245 6.20748 4.41494C6.00831 4.21577 5.70955 4.21577 5.51038 4.41494C4.78009 5.14523 4.083 5.84233 3.35271 6.57262C2.88798 7.03735 3.58507 7.73444 4.0498 7.26971Z" fill="#7E828A"/>
</svg>
