<?xml version="1.0" standalone="no"?>
<!DOCTYPE svg PUBLIC "-//W3C//DTD SVG 20010904//EN"
 "http://www.w3.org/TR/2001/REC-SVG-20010904/DTD/svg10.dtd">
<svg version="1.0" xmlns="http://www.w3.org/2000/svg"
 width="702.000000pt" height="702.000000pt" viewBox="0 0 702.000000 702.000000"
 preserveAspectRatio="xMidYMid meet">
<metadata>
Created by potrace 1.14, written by Peter Selinger 2001-2017
</metadata>
<g transform="translate(0.000000,702.000000) scale(0.100000,-0.100000)"
fill="#000000" stroke="none">
<path d="M5 4182 c-6 -16 4 -19 87 -26 96 -7 117 -23 134 -101 5 -24 6 -1012
1 -1072 -8 -82 -44 -111 -149 -117 -62 -4 -95 -20 -65 -31 8 -4 283 -5 609 -3
576 4 595 5 658 26 172 57 252 165 251 338 0 98 -25 171 -77 233 -60 69 -162
108 -306 116 -40 2 -86 5 -103 6 -16 1 2 5 40 9 120 13 147 20 212 52 114 56
154 118 154 241 0 182 -110 301 -307 333 -27 4 -293 8 -591 9 -441 0 -543 -2
-548 -13z m859 -42 c69 -23 119 -141 119 -285 0 -126 -17 -200 -57 -240 -35
-36 -58 -43 -159 -51 l-72 -6 1 293 c1 162 2 298 3 302 1 10 124 1 165 -13z
m64 -635 c65 -39 111 -167 110 -306 -1 -136 -31 -252 -75 -292 -25 -22 -106
-37 -197 -37 l-71 0 1 328 c1 180 2 328 3 329 0 1 45 0 100 -1 73 -3 106 -8
129 -21z"/>
<path d="M1676 4183 c-7 -18 3 -21 72 -27 74 -6 99 -18 114 -54 15 -34 20
-1100 5 -1152 -16 -63 -32 -71 -152 -84 -16 -2 -33 -4 -37 -5 -4 0 -5 -8 -2
-16 5 -13 62 -15 423 -15 367 0 418 2 418 15 0 15 -21 23 -66 24 -14 0 -36 5
-51 11 -50 21 -54 37 -58 286 -4 228 -4 232 19 263 12 16 26 28 30 25 14 -9
289 -423 315 -474 42 -83 29 -107 -63 -114 -27 -2 -54 -4 -60 -5 -7 -1 -13 -8
-13 -16 0 -13 57 -15 456 -15 420 0 455 1 452 17 -2 11 -15 17 -43 20 -61 5
-99 21 -132 56 -32 33 -112 151 -293 432 -57 88 -137 212 -179 275 -41 63 -80
124 -86 135 -6 11 -18 30 -25 42 -13 20 -10 27 50 95 36 40 69 78 75 85 53 61
126 126 159 143 23 10 70 23 106 27 48 6 65 12 65 23 0 13 -33 15 -237 15
-220 0 -238 -1 -238 -17 0 -14 9 -18 38 -19 89 -2 122 -16 122 -53 0 -39 -56
-114 -255 -341 -29 -33 -101 -116 -159 -183 l-107 -124 2 291 c0 160 5 307 9
327 13 55 36 73 108 80 50 6 62 10 60 23 -3 14 -46 16 -421 16 -319 0 -418 -3
-421 -12z"/>
<path d="M3340 4192 c-5 -2 -10 -10 -10 -17 0 -8 20 -15 53 -19 28 -4 59 -13
67 -19 41 -31 82 -117 150 -312 16 -44 45 -125 65 -180 20 -55 53 -149 75
-210 21 -60 47 -135 58 -165 11 -30 51 -140 88 -245 37 -104 72 -193 77 -196
5 -4 40 -7 78 -7 53 0 69 4 74 17 4 9 72 192 151 406 80 215 157 423 172 463
l28 73 63 -178 c34 -98 73 -207 86 -243 13 -36 38 -105 55 -155 54 -154 77
-217 107 -300 l29 -80 71 -2 c46 -2 74 2 80 10 5 7 29 64 52 127 23 63 53 142
66 175 28 73 71 187 120 320 40 110 124 332 187 498 49 128 84 172 151 192 61
18 223 15 254 -5 47 -30 48 -40 48 -637 0 -552 0 -562 -21 -589 -23 -31 -49
-40 -132 -48 -32 -3 -58 -5 -59 -5 -2 -1 -3 -8 -3 -16 0 -13 58 -15 458 -15
401 0 459 2 459 15 0 18 5 16 -75 21 -74 4 -107 18 -136 57 -20 27 -21 42 -23
313 -2 317 -9 288 72 284 120 -5 210 -109 228 -264 7 -54 20 -75 33 -54 5 7 9
163 9 346 0 311 -1 332 -17 332 -10 0 -19 -7 -19 -15 -1 -8 -2 -18 -3 -22 -1
-5 -6 -28 -10 -53 -25 -139 -104 -217 -229 -226 l-64 -4 0 299 0 299 81 -4
c124 -5 165 -13 226 -44 109 -55 209 -185 326 -422 32 -65 54 -98 65 -98 15 0
16 27 15 302 l-1 303 -923 0 c-508 0 -925 -2 -927 -5 -10 -16 15 -28 60 -31
67 -4 103 -17 117 -42 17 -32 11 -97 -18 -179 -14 -40 -27 -80 -29 -88 -4 -18
-161 -433 -178 -472 -6 -16 -14 -28 -17 -28 -3 0 -16 35 -29 78 -14 42 -28 84
-33 92 -17 32 -160 448 -173 503 -18 76 -8 109 36 124 19 7 51 12 72 12 28 1
37 5 37 19 0 16 -25 17 -407 17 -366 0 -408 -2 -411 -16 -2 -12 8 -18 43 -22
25 -4 56 -14 69 -22 25 -17 71 -109 111 -224 l26 -73 -70 -181 c-38 -100 -80
-209 -92 -241 l-22 -60 -29 75 c-16 40 -35 92 -43 114 -8 22 -37 101 -65 175
-28 74 -53 142 -55 150 -2 8 -13 42 -25 75 -61 175 -49 211 73 214 19 1 27 6
27 19 0 16 -26 17 -395 17 -217 0 -399 -1 -405 -3z"/>
</g>
</svg>
