<svg width="16" height="16" viewBox="0 0 16 16" fill="none" xmlns="http://www.w3.org/2000/svg">
<path fill-rule="evenodd" clip-rule="evenodd" d="M12.1276 10.9265C13.1834 9.56531 13.681 7.85301 13.5191 6.13795C13.3573 4.4229 12.5481 2.83392 11.2563 1.69428C9.96445 0.554649 8.28697 -0.0500372 6.56512 0.00324421C4.84326 0.0565256 3.20638 0.763772 1.98748 1.9811C0.767509 3.19927 0.05795 4.83679 0.0033954 6.55995C-0.0511592 8.28311 0.553396 9.96223 1.69386 11.2551C2.83433 12.548 4.42488 13.3574 6.14137 13.5183C7.85787 13.6793 9.57114 13.1796 10.932 12.1212L10.9684 12.1593L14.5602 15.7519C14.6388 15.8305 14.7322 15.8929 14.835 15.9355C14.9378 15.9781 15.0479 16 15.1592 16C15.2705 16 15.3806 15.9781 15.4834 15.9355C15.5862 15.8929 15.6796 15.8305 15.7582 15.7519C15.8369 15.6732 15.8993 15.5798 15.9419 15.477C15.9845 15.3742 16.0064 15.2641 16.0064 15.1528C16.0064 15.0416 15.9845 14.9314 15.9419 14.8286C15.8993 14.7258 15.8369 14.6325 15.7582 14.5538L12.1657 10.9621C12.1533 10.9499 12.1406 10.938 12.1276 10.9265ZM10.3698 3.17918C10.8479 3.64951 11.2281 4.20983 11.4885 4.82783C11.7489 5.44583 11.8844 6.10927 11.8871 6.77989C11.8899 7.45051 11.7598 8.11503 11.5044 8.73513C11.249 9.35523 10.8734 9.91862 10.3992 10.3928C9.925 10.867 9.3616 11.2427 8.7415 11.498C8.1214 11.7534 7.45688 11.8835 6.78626 11.8807C6.11564 11.878 5.4522 11.7425 4.8342 11.4821C4.21621 11.2217 3.65588 10.8415 3.18556 10.3635C2.24565 9.40811 1.72132 8.12007 1.72678 6.77989C1.73223 5.43971 2.26704 4.15598 3.21469 3.20832C4.16235 2.26066 5.44608 1.72586 6.78626 1.7204C8.12644 1.71494 9.41449 2.23928 10.3698 3.17918Z" fill="#7E828A"/>
</svg>
