<svg width="18" height="18" viewBox="0 0 18 18" fill="none" xmlns="http://www.w3.org/2000/svg">
<path d="M9 11.8667C9.56697 11.8667 10.1212 11.6985 10.5926 11.3835C11.064 11.0685 11.4315 10.6208 11.6484 10.097C11.8654 9.57321 11.9222 8.99682 11.8116 8.44075C11.701 7.88467 11.4279 7.37389 11.027 6.97298C10.6261 6.57207 10.1153 6.29905 9.55925 6.18844C9.00318 6.07783 8.42679 6.1346 7.90298 6.35157C7.37917 6.56854 6.93146 6.93596 6.61646 7.40738C6.30147 7.8788 6.13335 8.43304 6.13335 9C6.13335 9.76029 6.43537 10.4894 6.97297 11.027C7.51057 11.5646 8.23971 11.8667 9 11.8667ZM9 6.74764C9.44547 6.74764 9.88094 6.87974 10.2513 7.12723C10.6217 7.37472 10.9104 7.72649 11.0809 8.13806C11.2514 8.54963 11.296 9.0025 11.2091 9.43942C11.1222 9.87634 10.9077 10.2777 10.5927 10.5927C10.2777 10.9077 9.87633 11.1222 9.43941 11.2091C9.00249 11.296 8.54962 11.2514 8.13805 11.0809C7.72649 10.9104 7.37471 10.6218 7.12722 10.2514C6.87973 9.88095 6.74763 9.44548 6.74763 9C6.74763 8.40264 6.98493 7.82974 7.40733 7.40734C7.82973 6.98494 8.40263 6.74764 9 6.74764Z" fill="#7E828A" stroke="#848484" stroke-width="0.6"/>
<path d="M2.34323 10.6975C2.49594 10.6995 2.64431 10.7486 2.76814 10.838C2.89198 10.9274 2.98527 11.0528 3.03532 11.1971C3.09265 11.3547 3.15613 11.5104 3.2278 11.6619C3.29524 11.7996 3.31845 11.9547 3.29426 12.1061C3.27006 12.2575 3.19965 12.3977 3.09265 12.5076C2.84158 12.76 2.70064 13.1016 2.70064 13.4576C2.70064 13.8137 2.84158 14.1553 3.09265 14.4077L3.59227 14.9073C3.84446 15.1589 4.18614 15.3002 4.54236 15.3002C4.89858 15.3002 5.24026 15.1589 5.49245 14.9073C5.60226 14.8004 5.74247 14.7299 5.89386 14.7057C6.04525 14.6815 6.20043 14.7048 6.33811 14.7722C6.48963 14.8418 6.64525 14.9073 6.80292 14.9647C6.94721 15.0147 7.07258 15.108 7.16198 15.2319C7.25137 15.3557 7.30045 15.5041 7.30253 15.6568C7.30308 16.0132 7.44505 16.3549 7.69728 16.6067C7.94951 16.8585 8.29138 17 8.64781 17H9.35219C9.70862 17 10.0505 16.8585 10.3027 16.6067C10.5549 16.3549 10.6969 16.0132 10.6975 15.6568C10.6995 15.5041 10.7486 15.3557 10.838 15.2319C10.9274 15.108 11.0528 15.0147 11.1971 14.9647C11.3547 14.9073 11.5104 14.8418 11.6619 14.7722C11.7994 14.7042 11.9548 14.6806 12.1063 14.7048C12.2578 14.729 12.3981 14.7998 12.5076 14.9073C12.7597 15.1589 13.1014 15.3002 13.4576 15.3002C13.8139 15.3002 14.1555 15.1589 14.4077 14.9073L14.9073 14.4077C15.1584 14.1553 15.2994 13.8137 15.2994 13.4576C15.2994 13.1016 15.1584 12.76 14.9073 12.5076C14.8004 12.3977 14.7299 12.2575 14.7057 12.1061C14.6815 11.9547 14.7048 11.7996 14.7722 11.6619C14.8439 11.5104 14.9073 11.3547 14.9647 11.1971C15.0147 11.0528 15.108 10.9274 15.2319 10.838C15.3557 10.7486 15.5041 10.6995 15.6568 10.6975C16.0132 10.6969 16.3549 10.5549 16.6067 10.3027C16.8585 10.0505 17 9.70862 17 9.35219V8.64781C17 8.29138 16.8585 7.94951 16.6067 7.69728C16.3549 7.44505 16.0132 7.30308 15.6568 7.30253C15.5041 7.30045 15.3557 7.25137 15.2319 7.16198C15.108 7.07258 15.0147 6.94721 14.9647 6.80292C14.9073 6.64525 14.8439 6.48963 14.7722 6.33811C14.7048 6.20043 14.6815 6.04525 14.7057 5.89386C14.7299 5.74247 14.8004 5.60226 14.9073 5.49245C15.1584 5.23999 15.2994 4.89841 15.2994 4.54236C15.2994 4.18631 15.1584 3.84473 14.9073 3.59227L14.4077 3.09265C14.1555 2.84108 13.8139 2.6998 13.4576 2.6998C13.1014 2.6998 12.7597 2.84108 12.5076 3.09265C12.3981 3.20017 12.2578 3.27095 12.1063 3.29517C11.9548 3.31938 11.7994 3.29584 11.6619 3.2278C11.5104 3.15818 11.3547 3.09265 11.1971 3.03532C11.0528 2.98527 10.9274 2.89198 10.838 2.76814C10.7486 2.64431 10.6995 2.49594 10.6975 2.34323C10.6969 1.9868 10.5549 1.64514 10.3027 1.3933C10.0505 1.14145 9.70862 1 9.35219 1H8.64781C8.29138 1 7.94951 1.14145 7.69728 1.3933C7.44505 1.64514 7.30308 1.9868 7.30253 2.34323C7.30045 2.49594 7.25137 2.64431 7.16198 2.76814C7.07258 2.89198 6.94721 2.98527 6.80292 3.03532C6.64525 3.09265 6.48963 3.15818 6.33811 3.2278C6.20043 3.29524 6.04525 3.31845 5.89386 3.29426C5.74247 3.27006 5.60226 3.19965 5.49245 3.09265C5.23999 2.84158 4.89841 2.70064 4.54236 2.70064C4.18631 2.70064 3.84473 2.84158 3.59227 3.09265L3.09265 3.59227C2.84158 3.84473 2.70064 4.18631 2.70064 4.54236C2.70064 4.89841 2.84158 5.23999 3.09265 5.49245C3.19965 5.60226 3.27006 5.74247 3.29426 5.89386C3.31845 6.04525 3.29524 6.20043 3.2278 6.33811C3.15613 6.48963 3.09265 6.64525 3.03532 6.80292C2.98527 6.94721 2.89198 7.07258 2.76814 7.16198C2.64431 7.25137 2.49594 7.30045 2.34323 7.30253C1.9868 7.30308 1.64514 7.44505 1.3933 7.69728C1.14145 7.94951 1 8.29138 1 8.64781V9.35219C1 9.70862 1.14145 10.0505 1.3933 10.3027C1.64514 10.5549 1.9868 10.6969 2.34323 10.6975ZM1.61428 8.64986C1.61428 8.45634 1.69102 8.27072 1.82766 8.13369C1.96431 7.99666 2.14971 7.91941 2.34323 7.91886C2.62163 7.91779 2.89288 7.83063 3.1198 7.66933C3.34671 7.50803 3.51818 7.2805 3.6107 7.01792C3.66394 6.87663 3.72127 6.73535 3.78475 6.59816C3.90616 6.34665 3.94655 6.06367 3.90034 5.78824C3.85413 5.51282 3.7236 5.25851 3.52675 5.0604C3.39365 4.92324 3.31921 4.73963 3.31921 4.5485C3.31921 4.35738 3.39365 4.17377 3.52675 4.0366L4.02636 3.53698C4.16353 3.40389 4.34714 3.32945 4.53826 3.32945C4.72939 3.32945 4.913 3.40389 5.05017 3.53698C5.24827 3.73383 5.50258 3.86437 5.77801 3.91058C6.05343 3.95679 6.33642 3.9164 6.58792 3.79498C6.72511 3.73151 6.86435 3.67417 7.00768 3.62094C7.27026 3.52842 7.49779 3.35695 7.65909 3.13003C7.82039 2.90312 7.90755 2.63187 7.90863 2.35347C7.90917 2.15995 7.98642 1.97455 8.12345 1.8379C8.26048 1.70125 8.4461 1.62452 8.63962 1.62452H9.344C9.53752 1.62452 9.72314 1.70125 9.86017 1.8379C9.9972 1.97455 10.0745 2.15995 10.075 2.35347C10.0761 2.63187 10.1632 2.90312 10.3245 3.13003C10.4858 3.35695 10.7134 3.52842 10.9759 3.62094C11.1193 3.67417 11.2585 3.73151 11.3957 3.79498C11.6472 3.9164 11.9302 3.95679 12.2056 3.91058C12.481 3.86437 12.7353 3.73383 12.9335 3.53698C13.0716 3.40315 13.2571 3.32952 13.4495 3.33222C13.6417 3.32997 13.8271 3.40354 13.9654 3.53698L14.4651 4.0366C14.5986 4.17352 14.6734 4.35722 14.6734 4.5485C14.6734 4.73978 14.5986 4.92349 14.4651 5.0604C14.2688 5.25891 14.1388 5.51331 14.093 5.78866C14.0472 6.064 14.0877 6.34679 14.2091 6.59816C14.2726 6.73535 14.332 6.87663 14.3832 7.01792C14.4757 7.2805 14.6471 7.50803 14.8741 7.66933C15.101 7.83063 15.3722 7.91779 15.6506 7.91886C15.8441 7.91941 16.0296 7.99666 16.1662 8.13369C16.3028 8.27072 16.3796 8.45634 16.3796 8.64986V9.35424C16.3796 9.54775 16.3028 9.73338 16.1662 9.87041C16.0296 10.0074 15.8441 10.0847 15.6506 10.0852C15.3722 10.0863 15.101 10.1735 14.8741 10.3348C14.6471 10.4961 14.4757 10.7236 14.3832 10.9862C14.332 11.1275 14.2726 11.2687 14.2091 11.4059C14.0877 11.6574 14.0473 11.9404 14.0935 12.2159C14.1397 12.4913 14.2703 12.7456 14.4671 12.9437C14.6012 13.0804 14.6763 13.2642 14.6763 13.4556C14.6763 13.647 14.6012 13.8308 14.4671 13.9675L13.9675 14.4671C13.8287 14.5969 13.6457 14.6692 13.4556 14.6692C13.2655 14.6692 13.0825 14.5969 12.9437 14.4671C12.7456 14.2703 12.4913 14.1397 12.2159 14.0935C11.9404 14.0473 11.6574 14.0877 11.4059 14.2091C11.2708 14.2726 11.1295 14.3299 10.9862 14.3832C10.7236 14.4757 10.4961 14.6471 10.3348 14.8741C10.1735 15.101 10.0863 15.3722 10.0852 15.6506C10.0847 15.8441 10.0074 16.0296 9.87041 16.1662C9.73338 16.3028 9.54775 16.3796 9.35424 16.3796H8.64781C8.45429 16.3796 8.26867 16.3028 8.13164 16.1662C7.99461 16.0296 7.91736 15.8441 7.91682 15.6506C7.91574 15.3722 7.82858 15.101 7.66728 14.8741C7.50598 14.6471 7.27845 14.4757 7.01587 14.3832C6.87254 14.3299 6.73125 14.2726 6.59611 14.2091C6.40961 14.1217 6.20621 14.0763 6.00026 14.076C5.82515 14.0754 5.65168 14.1097 5.48997 14.1768C5.32825 14.244 5.18153 14.3426 5.05836 14.4671C4.91952 14.5969 4.73654 14.6692 4.54645 14.6692C4.35637 14.6692 4.17339 14.5969 4.03455 14.4671L3.53494 13.9675C3.40136 13.8306 3.32659 13.6469 3.32659 13.4556C3.32659 13.2643 3.40136 13.0806 3.53494 12.9437C3.73119 12.7452 3.86116 12.4908 3.90699 12.2154C3.95282 11.9401 3.91226 11.6573 3.79089 11.4059C3.72741 11.2687 3.67008 11.1275 3.61684 10.9862C3.52432 10.7236 3.35285 10.4961 3.12594 10.3348C2.89902 10.1735 2.62777 10.0863 2.34937 10.0852C2.15586 10.0847 1.97045 10.0074 1.8338 9.87041C1.69716 9.73338 1.62042 9.54775 1.62042 9.35424L1.61428 8.64986Z" fill="#7E828A" stroke="#848484" stroke-width="0.6"/>
</svg>
