<svg width="16" height="20" viewBox="0 0 16 20" fill="none" xmlns="http://www.w3.org/2000/svg">
<path d="M9.49912 10.3593L9.41974 10.3398L9.38485 10.4137L5.09168 19.5076L1.54114 17.8314C1.09482 17.6207 0.899834 17.078 1.11248 16.6276C1.32512 16.1771 1.86803 15.9828 2.31435 16.1935L4.13665 17.0539L4.22708 17.0965L4.26977 17.0061L5.12836 15.1874L5.17105 15.097L5.08062 15.0543L3.26195 14.1957C2.81176 13.9832 2.61711 13.4404 2.82965 12.9902C3.04218 12.54 3.58496 12.3454 4.03515 12.5579L5.85382 13.4165L5.94425 13.4592L5.98694 13.3688L7.74704 9.64051L7.78179 9.5669L7.71676 9.51793C6.74271 8.78461 6.07496 7.71636 5.84247 6.5195C5.60998 5.32264 5.82925 4.08209 6.45792 3.03744C7.0866 1.99279 8.08008 1.21816 9.24648 0.863164C10.4129 0.508174 11.6694 0.597979 12.7734 1.11523C13.879 1.63584 14.7517 2.54867 15.2222 3.67653C15.6926 4.80442 15.7272 6.06687 15.3192 7.21881C14.9111 8.37075 14.0897 9.33 13.0142 9.91033C11.9387 10.4907 10.6859 10.6507 9.49912 10.3593ZM7.85105 4.24081C7.49816 4.98831 7.45666 5.84537 7.73569 6.62346C8.01472 7.40155 8.59141 8.03692 9.33891 8.38981C10.0864 8.7427 10.9435 8.7842 11.7216 8.50517C12.4996 8.22614 13.135 7.64945 13.4879 6.90195C13.8408 6.15446 13.8823 5.2974 13.6033 4.51931C13.3242 3.74122 12.7475 3.10584 12 2.75295C11.2526 2.40007 10.3955 2.35857 9.6174 2.6376C8.83931 2.91663 8.20394 3.49332 7.85105 4.24081Z" fill="#7E828A" stroke="#FAFAFA" stroke-width="0.2"/>
</svg>
