<svg width="6" height="10" viewBox="0 0 6 10" fill="none" xmlns="http://www.w3.org/2000/svg">
<path d="M1.57303 4.56283L5.02703 1.11183C5.14916 0.989301 5.21762 0.823272 5.21734 0.65027C5.21705 0.477268 5.14806 0.311463 5.02553 0.18933C4.903 0.0671983 4.73697 -0.001257 4.56397 -0.000975699C4.39097 -0.000694397 4.22516 0.0683006 4.10303 0.190831L0.19003 4.10583C0.0715487 4.22452 0.00344067 4.38435 -9.89612e-05 4.55202C-0.00363859 4.71968 0.0576632 4.88225 0.17103 5.00583L4.10103 8.94383C4.1615 9.0045 4.23334 9.05267 4.31242 9.08558C4.39151 9.11849 4.47631 9.1355 4.56197 9.13564C4.64763 9.13578 4.73248 9.11904 4.81168 9.08639C4.89087 9.05373 4.96286 9.0058 5.02353 8.94533C5.0842 8.88486 5.13237 8.81302 5.16528 8.73394C5.19819 8.65485 5.2152 8.57005 5.21534 8.48439C5.21548 8.39873 5.19874 8.31388 5.16609 8.23468C5.13344 8.15549 5.0855 8.0835 5.02503 8.02283L1.57303 4.56283Z" fill="#95A6B7"/>
</svg>
