<svg width="6" height="10" viewBox="0 0 6 10" fill="none" xmlns="http://www.w3.org/2000/svg">
<path d="M3.69797 4.56608L0.243966 8.01708C0.121834 8.13961 0.0533791 8.30563 0.0536604 8.47864C0.0539417 8.65164 0.122935 8.81744 0.245465 8.93958C0.367995 9.06171 0.534024 9.13016 0.707026 9.12988C0.880029 9.1296 1.04583 9.06061 1.16797 8.93808L5.08097 5.02308C5.19945 4.90439 5.26756 4.74456 5.2711 4.57689C5.27463 4.40922 5.21333 4.24666 5.09997 4.12308L1.16997 0.185077C1.10949 0.124406 1.03766 0.0762405 0.958572 0.0433302C0.879484 0.0104198 0.794688 -0.00659084 0.709026 -0.00673008C0.623364 -0.00686932 0.538514 0.00986576 0.459319 0.0425186C0.380125 0.0751715 0.308137 0.123103 0.247466 0.183577C0.186795 0.24405 0.13863 0.315882 0.10572 0.39497C0.0728092 0.474058 0.0557985 0.558854 0.0556593 0.644516C0.0555201 0.730178 0.0722542 0.815028 0.104907 0.894223C0.13756 0.973418 0.185493 1.04541 0.245967 1.10608L3.69797 4.56608Z" fill="#95A6B7"/>
</svg>
