<svg width="19" height="20" viewBox="0 0 19 20" fill="none" xmlns="http://www.w3.org/2000/svg">
<path fill-rule="evenodd" clip-rule="evenodd" d="M11.9142 10.3714C11.7609 9.93805 11.4771 9.56286 11.1018 9.29749C10.7265 9.03212 10.2781 8.88962 9.81847 8.88962V8.33401H8.70727V8.88962C8.11785 8.88962 7.55257 9.12376 7.13579 9.54055C6.71901 9.95733 6.48486 10.5226 6.48486 11.112C6.48486 11.7014 6.71901 12.2667 7.13579 12.6835C7.55257 13.1003 8.11785 13.3344 8.70727 13.3344V15.5568C8.2239 15.5568 7.8122 15.2485 7.65885 14.8162C7.6361 14.7455 7.5994 14.6801 7.55091 14.6238C7.50243 14.5675 7.44315 14.5215 7.37658 14.4885C7.31001 14.4555 7.23751 14.4362 7.16335 14.4318C7.0892 14.4273 7.0149 14.4378 6.94485 14.4625C6.87481 14.4873 6.81044 14.5258 6.75555 14.5759C6.70066 14.6259 6.65637 14.6865 6.62529 14.754C6.59421 14.8214 6.57698 14.8945 6.57462 14.9687C6.57226 15.043 6.58482 15.1169 6.61154 15.1863C6.7648 15.6196 7.04862 15.9948 7.42394 16.2602C7.79926 16.5255 8.24761 16.668 8.70727 16.668V17.2236H9.81847V16.668C10.4079 16.668 10.9732 16.4339 11.39 16.0171C11.8067 15.6003 12.0409 15.0351 12.0409 14.4456C12.0409 13.8562 11.8067 13.2909 11.39 12.8742C10.9732 12.4574 10.4079 12.2232 9.81847 12.2232V10.0008C10.0483 10.0008 10.2724 10.072 10.4601 10.2046C10.6478 10.3372 10.7897 10.5248 10.8663 10.7414C10.9154 10.8804 11.0177 10.9942 11.1506 11.0577C11.2165 11.0892 11.2878 11.1074 11.3607 11.1113C11.4336 11.1152 11.5065 11.1047 11.5753 11.0804C11.6441 11.0561 11.7074 11.0184 11.7617 10.9697C11.816 10.9209 11.8601 10.8619 11.8916 10.7961C11.923 10.7302 11.9412 10.6589 11.9451 10.586C11.949 10.5131 11.9385 10.4402 11.9142 10.3714ZM8.70727 10.0008C8.41256 10.0008 8.12992 10.1179 7.92153 10.3263C7.71314 10.5347 7.59607 10.8173 7.59607 11.112C7.59607 11.4067 7.71314 11.6894 7.92153 11.8978C8.12992 12.1062 8.41256 12.2232 8.70727 12.2232V10.0008ZM9.81847 15.5568C10.1132 15.5568 10.3958 15.4398 10.6042 15.2314C10.8126 15.023 10.9297 14.7403 10.9297 14.4456C10.9297 14.1509 10.8126 13.8683 10.6042 13.6599C10.3958 13.4515 10.1132 13.3344 9.81847 13.3344V15.5568Z" fill="#7E828A"/>
<path fill-rule="evenodd" clip-rule="evenodd" d="M3.2363 1.45623C4.59975 0.788955 6.8366 0 9.28458 0C11.6814 0 13.8594 0.756174 15.2156 1.41456L15.2923 1.45179C15.7012 1.65403 16.0313 1.84515 16.2635 2.00017L14.2111 5.00042C18.9426 9.83749 22.5974 20 9.28458 20C-4.02819 20 -0.471786 10.0219 4.30083 5.00042L2.26178 2.00017C2.41901 1.89738 2.61847 1.77793 2.85627 1.65125C2.97406 1.58791 3.10073 1.52235 3.2363 1.45623ZM12.8921 4.96041L14.535 2.55855C13.0071 2.66856 11.1892 3.02747 9.43904 3.53418C8.18894 3.89532 6.79993 3.84032 5.51371 3.60308C5.18959 3.54299 4.8677 3.47146 4.54863 3.38862L5.61539 4.9593C7.90169 5.77326 10.6052 5.77326 12.8921 4.96041ZM4.97367 5.90605C7.64889 6.93947 10.8642 6.93947 13.5394 5.90494C14.6561 7.08209 15.5902 8.4198 16.3107 9.8736C17.0619 11.4059 17.4708 12.9377 17.4042 14.2579C17.3397 15.5318 16.8385 16.6203 15.694 17.4292C14.5011 18.2721 12.4949 18.8888 9.28403 18.8888C6.06987 18.8888 4.05415 18.2826 2.85016 17.4492C1.69728 16.6508 1.19113 15.5769 1.11946 14.3201C1.04445 13.0144 1.44448 11.4904 2.19288 9.94749C2.90683 8.47626 3.90302 7.06003 4.97367 5.90605ZM4.33473 2.17574C4.77921 2.30797 5.24369 2.42298 5.71484 2.51021C6.90938 2.73023 8.10726 2.76245 9.12957 2.46632C10.3209 2.11926 11.5326 1.8463 12.7577 1.64903C11.7353 1.34122 10.5397 1.1112 9.28403 1.1112C7.36998 1.1112 5.58483 1.64514 4.33473 2.17574Z" fill="#7E828A"/>
</svg>
