<svg width="20" height="14" viewBox="0 0 20 14" fill="none" xmlns="http://www.w3.org/2000/svg">
<path d="M5 13.125C3.55556 12.75 2.36111 11.9722 1.41667 10.7917C0.472222 9.61111 0 8.23611 0 6.66667C0 5.09722 0.472222 3.72222 1.41667 2.54167C2.36111 1.36111 3.55556 0.583334 5 0.208334V1.95833C4.01389 2.29167 3.21194 2.88889 2.59417 3.75C1.97639 4.61111 1.66722 5.58333 1.66667 6.66667C1.66667 7.75 1.97583 8.72222 2.59417 9.58333C3.2125 10.4444 4.01444 11.0417 5 11.375V13.125ZM11.6667 13.3333C9.81944 13.3333 8.24639 12.6842 6.9475 11.3858C5.64861 10.0875 4.99944 8.51444 5 6.66667C5 4.81944 5.64944 3.24639 6.94833 1.9475C8.24722 0.648611 9.82 -0.000555199 11.6667 3.56278e-07C12.5833 3.56278e-07 13.4444 0.173611 14.25 0.520834C15.0556 0.868056 15.7639 1.34722 16.375 1.95833L15.2083 3.125C14.75 2.66667 14.2189 2.30917 13.615 2.0525C13.0111 1.79583 12.3617 1.66722 11.6667 1.66667C10.2778 1.66667 9.09722 2.15278 8.125 3.125C7.15278 4.09722 6.66667 5.27778 6.66667 6.66667C6.66667 8.05556 7.15278 9.23611 8.125 10.2083C9.09722 11.1806 10.2778 11.6667 11.6667 11.6667C12.3611 11.6667 13.0106 11.5383 13.615 11.2817C14.2194 11.025 14.7506 10.6672 15.2083 10.2083L16.375 11.375C15.7639 11.9861 15.0556 12.4653 14.25 12.8125C13.4444 13.1597 12.5833 13.3333 11.6667 13.3333ZM16.6667 10L15.5 8.83333L16.8333 7.5H10.8333V5.83333H16.8333L15.5 4.5L16.6667 3.33333L20 6.66667L16.6667 10Z" fill="#7E828A"/>
</svg>
