<svg width="20" height="18" viewBox="0 0 20 18" fill="none" xmlns="http://www.w3.org/2000/svg">
<path d="M4.19757 8.24061C4.3526 8.39564 4.54639 8.47316 4.74018 8.47316C4.93397 8.47316 5.12777 8.39564 5.2828 8.24061C5.59287 7.93054 5.59287 7.44606 5.2828 7.15537L3.63557 5.50814H11.3679C11.7942 5.50814 12.143 5.15932 12.143 4.73297C12.143 4.30663 11.7942 3.95781 11.3679 3.95781H3.63557L5.2828 2.31058C5.59287 2.00051 5.59287 1.51603 5.2828 1.22534C4.97273 0.934654 4.48825 0.915275 4.19757 1.22534L1.23255 4.17098C0.922483 4.48105 0.922483 4.96552 1.23255 5.25621L4.19757 8.24061Z" fill="#7E828A" stroke="white" stroke-width="0.3"/>
<path d="M16.4646 7.67861C18.0924 7.67861 19.4102 6.36083 19.4102 4.73298C19.4102 3.10513 18.0924 1.78734 16.4646 1.78734C14.8367 1.76796 13.4996 3.10513 13.4996 4.73298C13.4996 6.36083 14.8367 7.67861 16.4646 7.67861ZM16.4646 3.3183C17.2398 3.3183 17.8599 3.93843 17.8599 4.7136C17.8599 5.48877 17.2398 6.1089 16.4646 6.1089C15.6894 6.1089 15.0693 5.48877 15.0693 4.7136C15.0499 3.95781 15.6894 3.3183 16.4646 3.3183Z" fill="#7E828A" stroke="white" stroke-width="0.3"/>
<path d="M16.2126 9.75218C15.9026 9.44211 15.4181 9.44211 15.1274 9.75218C14.8173 10.0622 14.8173 10.5467 15.1274 10.8374L16.7746 12.4846H9.02297C8.59663 12.4846 8.2478 12.8335 8.2478 13.2598C8.2478 13.6862 8.59663 14.035 9.02297 14.035H16.7553L15.108 15.6822C14.798 15.9923 14.798 16.4768 15.108 16.7674C15.2631 16.9225 15.4569 17 15.6507 17C15.8444 17 16.0382 16.9225 16.1933 16.7674L19.1777 13.7831C19.4877 13.473 19.4877 12.9885 19.1777 12.6978L16.2126 9.75218Z" fill="#7E828A" stroke="white" stroke-width="0.3"/>
<path d="M3.94564 10.3142C2.31779 10.3142 1 11.632 1 13.2598C1 14.8877 2.31779 16.2055 3.94564 16.2055C5.57349 16.2248 6.91065 14.8877 6.91065 13.2598C6.91065 11.632 5.57349 10.3142 3.94564 10.3142ZM3.94564 14.6745C3.17047 14.6745 2.55034 14.0544 2.55034 13.2792C2.55034 12.504 3.17047 11.8839 3.94564 11.8839C4.7208 11.8839 5.34094 12.504 5.34094 13.2792C5.36032 14.035 4.7208 14.6745 3.94564 14.6745Z" fill="#7E828A" stroke="white" stroke-width="0.3"/>
</svg>
