<svg width="23" height="18" viewBox="0 0 23 18" fill="none" xmlns="http://www.w3.org/2000/svg">
<path d="M20.5357 3H19.7143V2.25C19.7143 1.65326 19.4547 1.08097 18.9925 0.65901C18.5304 0.237053 17.9036 0 17.25 0H2.46429C1.81072 0 1.18392 0.237053 0.721773 0.65901C0.259629 1.08097 0 1.65326 0 2.25V15.75C0 16.3467 0.259629 16.919 0.721773 17.341C1.18392 17.7629 1.81072 18 2.46429 18H20.5357C21.1893 18 21.8161 17.7629 22.2782 17.341C22.7404 16.919 23 16.3467 23 15.75V5.25C23 4.65326 22.7404 4.08097 22.2782 3.65901C21.8161 3.23705 21.1893 3 20.5357 3ZM1.64286 2.25C1.64286 2.05109 1.7294 1.86032 1.88345 1.71967C2.0375 1.57902 2.24643 1.5 2.46429 1.5H17.25C17.4679 1.5 17.6768 1.57902 17.8308 1.71967C17.9849 1.86032 18.0714 2.05109 18.0714 2.25V3H1.64286V2.25ZM21.3571 12H18.0714C17.6357 12 17.2178 11.842 16.9098 11.5607C16.6017 11.2794 16.4286 10.8978 16.4286 10.5C16.4286 10.1022 16.6017 9.72064 16.9098 9.43934C17.2178 9.15804 17.6357 9 18.0714 9H21.3571V12ZM18.0714 7.5C17.2 7.5 16.3643 7.81607 15.7481 8.37868C15.1319 8.94129 14.7857 9.70435 14.7857 10.5C14.7857 11.2956 15.1319 12.0587 15.7481 12.6213C16.3643 13.1839 17.2 13.5 18.0714 13.5H21.3571V15.75C21.3571 15.9489 21.2706 16.1397 21.1166 16.2803C20.9625 16.421 20.7536 16.5 20.5357 16.5H2.46429C2.24643 16.5 2.0375 16.421 1.88345 16.2803C1.7294 16.1397 1.64286 15.9489 1.64286 15.75V4.5H20.5357C20.7536 4.5 20.9625 4.57902 21.1166 4.71967C21.2706 4.86032 21.3571 5.05109 21.3571 5.25V7.5H18.0714Z" fill="black"/>
</svg>
